<svg width="30" height="30" viewBox="0 0 30 30" fill="none" xmlns="http://www.w3.org/2000/svg">
<path d="M15 5C12.3478 5 9.8043 6.05357 7.92893 7.92893C6.05357 9.8043 5 12.3478 5 15C5 17.6522 6.05357 20.1957 7.92893 22.0711C9.8043 23.9464 12.3478 25 15 25C17.6522 25 20.1957 23.9464 22.0711 22.0711C23.9464 20.1957 25 17.6522 25 15C25 12.3478 23.9464 9.8043 22.0711 7.92893C20.1957 6.05357 17.6522 5 15 5ZM2.5 15C2.5 8.09625 8.09625 2.5 15 2.5C21.9037 2.5 27.5 8.09625 27.5 15C27.5 21.9037 21.9037 27.5 15 27.5C8.09625 27.5 2.5 21.9037 2.5 15ZM15 7.5C15.3315 7.5 15.6495 7.6317 15.8839 7.86612C16.1183 8.10054 16.25 8.41848 16.25 8.75V14.4825L19.6337 17.8663C19.8614 18.102 19.9874 18.4178 19.9846 18.7455C19.9817 19.0732 19.8503 19.3868 19.6185 19.6185C19.3868 19.8503 19.0732 19.9817 18.7455 19.9846C18.4178 19.9874 18.102 19.8614 17.8663 19.6337L14.1163 15.8837C13.8818 15.6494 13.7501 15.3315 13.75 15V8.75C13.75 8.41848 13.8817 8.10054 14.1161 7.86612C14.3505 7.6317 14.6685 7.5 15 7.5Z" fill="black"/>
</svg>
