<svg width="64" height="64" viewBox="0 0 64 64" fill="none" xmlns="http://www.w3.org/2000/svg">
<g id="typcn:weather-snow">
<path id="Vector" d="M54.6667 40.3573L48.1147 39.016L52.0693 37.96C52.4076 37.8693 52.7247 37.7129 53.0026 37.4996C53.2804 37.2864 53.5135 37.0205 53.6886 36.7171C53.8636 36.4138 53.9772 36.0789 54.0229 35.7317C54.0686 35.3845 54.0454 35.0316 53.9547 34.6933C53.864 34.355 53.7075 34.0379 53.4943 33.7601C53.281 33.4823 53.0151 33.2492 52.7118 33.0741C52.4085 32.899 52.0736 32.7854 51.7264 32.7398C51.3791 32.6941 51.0263 32.7173 50.688 32.808L46.6667 33.8827C46.7653 33.2667 46.856 32.6453 46.856 32C46.856 31.3547 46.7653 30.7307 46.6667 30.1147L50.6933 31.192L51.3867 31.2827C52.0336 31.2823 52.6583 31.0468 53.1444 30.6201C53.6306 30.1933 53.9451 29.6044 54.0292 28.963C54.1134 28.3216 53.9615 27.6715 53.602 27.1337C53.2424 26.596 52.6996 26.2073 52.0747 26.04L48.12 24.9813L54.6667 23.6427C55.1029 23.5533 55.5117 23.3616 55.8593 23.0832C56.2069 22.8049 56.4834 22.448 56.6661 22.0418C56.8487 21.6357 56.9322 21.192 56.9097 20.7472C56.8872 20.3025 56.7594 19.8695 56.5367 19.4838C56.314 19.0982 56.0029 18.7709 55.629 18.5291C55.2551 18.2873 54.8291 18.1377 54.386 18.0928C53.943 18.0479 53.4956 18.1089 53.0808 18.2708C52.666 18.4327 52.2955 18.6909 52 19.024L47.5653 24.0213L48.6267 20.0773C48.7177 19.739 48.7412 19.3861 48.6959 19.0388C48.6506 18.6914 48.5373 18.3563 48.3624 18.0528C48.0094 17.4396 47.4272 16.9919 46.744 16.808C46.0608 16.6241 45.3325 16.7192 44.7194 17.0722C44.1063 17.4253 43.6586 18.0075 43.4747 18.6907L42.3893 22.736C41.4142 21.9301 40.3169 21.2847 39.1387 20.824L42.0773 17.8853C42.3249 17.6377 42.5213 17.3438 42.6553 17.0203C42.7893 16.6968 42.8583 16.3501 42.8583 16C42.8583 15.6499 42.7893 15.3032 42.6553 14.9797C42.5213 14.6562 42.3249 14.3623 42.0773 14.1147C41.8298 13.8671 41.5358 13.6707 41.2123 13.5367C40.8889 13.4027 40.5421 13.3337 40.192 13.3337C39.8419 13.3337 39.4952 13.4027 39.1717 13.5367C38.8482 13.6707 38.5543 13.8671 38.3067 14.1147L35.4107 17.0107L37.5253 10.6667C37.6645 10.2448 37.7016 9.79601 37.6336 9.35705C37.5655 8.9181 37.3944 8.50155 37.1341 8.14161C36.8738 7.78167 36.5318 7.48861 36.1363 7.28651C35.7407 7.08441 35.3029 6.97903 34.8587 6.97903C34.4145 6.97903 33.9766 7.08441 33.5811 7.28651C33.1855 7.48861 32.8436 7.78167 32.5833 8.14161C32.323 8.50155 32.1518 8.9181 32.0838 9.35705C32.0158 9.79601 32.0529 10.2448 32.192 10.6667L34.3067 17.0107L31.4107 14.1147C30.9107 13.6146 30.2325 13.3337 29.5253 13.3337C28.8182 13.3337 28.14 13.6146 27.64 14.1147C27.14 14.6147 26.8591 15.2929 26.8591 16C26.8591 16.7071 27.14 17.3853 27.64 17.8853L30.5787 20.824C29.4013 21.2863 28.3042 21.9316 27.328 22.736L26.248 18.696C26.1624 18.3526 26.0093 18.0296 25.7976 17.7459C25.5859 17.4623 25.3198 17.2236 25.015 17.0438C24.7101 16.864 24.3724 16.7468 24.0218 16.6988C23.6711 16.6509 23.3144 16.6732 22.9724 16.7645C22.6304 16.8559 22.3101 17.0144 22.03 17.2308C21.7499 17.4472 21.5157 17.7172 21.3411 18.025C21.1664 18.3329 21.0548 18.6724 21.0127 19.0239C20.9707 19.3753 20.999 19.7316 21.096 20.072L22.152 24.032L17.72 19.0267C17.3726 18.6384 16.9243 18.354 16.4251 18.2051C15.9258 18.0562 15.395 18.0486 14.8916 18.1832C14.3883 18.3177 13.9321 18.5891 13.5737 18.9673C13.2153 19.3454 12.9687 19.8155 12.8613 20.3253C12.5493 21.8453 13.5307 23.3333 15.0533 23.6453L21.5973 24.9867L17.6507 26.0427C17.0258 26.2099 16.483 26.5986 16.1234 27.1364C15.7638 27.6741 15.6119 28.3242 15.6961 28.9656C15.7803 29.607 16.0947 30.196 16.5809 30.6227C17.0671 31.0495 17.6918 31.285 18.3387 31.2853L19.032 31.1947L23.0533 30.1173C22.9357 30.7383 22.8706 31.3681 22.8587 32C22.8587 32.6453 22.9493 33.2667 23.048 33.8853L19.0267 32.808C18.6884 32.7173 18.3355 32.6941 17.9883 32.7398C17.6411 32.7854 17.3062 32.899 17.0029 33.0741C16.6995 33.2492 16.4336 33.4823 16.2204 33.7601C16.0071 34.0379 15.8507 34.355 15.76 34.6933C15.6693 35.0316 15.6461 35.3845 15.6918 35.7317C15.7374 36.0789 15.8511 36.4138 16.0261 36.7171C16.2012 37.0205 16.4343 37.2864 16.7121 37.4996C16.9899 37.7129 17.3071 37.8693 17.6453 37.96L21.6 39.0187L15.0533 40.3573C14.5409 40.4603 14.0673 40.7043 13.6862 41.062C13.305 41.4196 13.0313 41.8767 12.896 42.3816C12.7607 42.8865 12.7692 43.4191 12.9204 43.9195C13.0717 44.4198 13.3597 44.8679 13.752 45.2133C14.028 45.4586 14.3496 45.6471 14.6985 45.768C15.0474 45.8888 15.4167 45.9397 15.7852 45.9176C16.1538 45.8956 16.5144 45.8011 16.8464 45.6395C17.1784 45.4779 17.4753 45.2524 17.72 44.976L22.16 39.968L21.0987 43.9253C21.0079 44.2636 20.9847 44.6165 21.0304 44.9637C21.076 45.311 21.1896 45.6459 21.3647 45.9492C21.5398 46.2525 21.7729 46.5184 22.0507 46.7317C22.3286 46.9449 22.6457 47.1013 22.984 47.192L23.6773 47.2827C24.2639 47.2822 24.8339 47.0883 25.2991 46.731C25.7643 46.3738 26.0988 45.8732 26.2507 45.3067L27.3333 41.2667C28.3093 42.0613 29.3893 42.7173 30.5867 43.176L27.6427 46.1147C27.3951 46.3623 27.1987 46.6562 27.0647 46.9797C26.9307 47.3032 26.8617 47.6499 26.8617 48C26.8617 48.3501 26.9307 48.6968 27.0647 49.0203C27.1987 49.3438 27.3951 49.6378 27.6427 49.8853C28.1427 50.3854 28.8209 50.6663 29.528 50.6663C29.8781 50.6663 30.2249 50.5973 30.5483 50.4633C30.8718 50.3293 31.1658 50.1329 31.4133 49.8853L33.296 48H33.968L32.192 53.3307C32.0529 53.7525 32.0158 54.2013 32.0838 54.6403C32.1518 55.0792 32.323 55.4958 32.5833 55.8557C32.8436 56.2157 33.1855 56.5087 33.5811 56.7108C33.9766 56.9129 34.4145 57.0183 34.8587 57.0183C35.3029 57.0183 35.7407 56.9129 36.1363 56.7108C36.5318 56.5087 36.8738 56.2157 37.1341 55.8557C37.3944 55.4958 37.5655 55.0792 37.6336 54.6403C37.7016 54.2013 37.6645 53.7525 37.5253 53.3307L35.7493 48H36.4213L38.3067 49.8853C38.8067 50.3854 39.4849 50.6663 40.192 50.6663C40.8991 50.6663 41.5773 50.3854 42.0773 49.8853C42.5774 49.3853 42.8583 48.7071 42.8583 48C42.8583 47.2929 42.5774 46.6147 42.0773 46.1147L39.1387 43.1733C40.3182 42.7137 41.4165 42.0682 42.392 41.2613L43.4747 45.3067C43.6266 45.8732 43.961 46.3738 44.4262 46.731C44.8915 47.0883 45.4615 47.2822 46.048 47.2827L46.7413 47.192C47.0796 47.1013 47.3968 46.9449 47.6746 46.7317C47.9525 46.5184 48.1856 46.2525 48.3607 45.9492C48.5357 45.6459 48.6493 45.311 48.695 44.9637C48.7406 44.6165 48.7174 44.2636 48.6267 43.9253L47.568 39.9787L52 44.976C52.2955 45.3091 52.666 45.5673 53.0808 45.7292C53.4956 45.8911 53.943 45.9521 54.386 45.9072C54.8291 45.8623 55.2551 45.7127 55.629 45.4709C56.0029 45.229 56.314 44.9018 56.5367 44.5162C56.7594 44.1305 56.8872 43.6975 56.9097 43.2528C56.9322 42.808 56.8487 42.3643 56.6661 41.9582C56.4834 41.552 56.2069 41.1951 55.8593 40.9168C55.5117 40.6384 55.1029 40.4467 54.6667 40.3573ZM34.8587 38.6667C31.1813 38.6667 28.192 35.6773 28.192 32C28.192 28.3227 31.1813 25.3333 34.8587 25.3333C38.536 25.3333 41.5253 28.3227 41.5253 32C41.5253 35.6773 38.536 38.6667 34.8587 38.6667Z" fill="#699BF7"/>
</g>
</svg>
