<svg width="64" height="64" viewBox="0 0 64 64" fill="none" xmlns="http://www.w3.org/2000/svg">
<g id="solar:sun-bold">
<path id="Vector" d="M48 32C48 36.2435 46.3143 40.3131 43.3137 43.3137C40.3131 46.3143 36.2435 48 32 48C27.7565 48 23.6869 46.3143 20.6863 43.3137C17.6857 40.3131 16 36.2435 16 32C16 27.7565 17.6857 23.6869 20.6863 20.6863C23.6869 17.6857 27.7565 16 32 16C36.2435 16 40.3131 17.6857 43.3137 20.6863C46.3143 23.6869 48 27.7565 48 32Z" fill="#F24E1E"/>
<path id="Vector_2" fill-rule="evenodd" clip-rule="evenodd" d="M32 3.33331C32.5304 3.33331 33.0391 3.54403 33.4142 3.9191C33.7893 4.29417 34 4.80288 34 5.33331V7.99998C34 8.53041 33.7893 9.03912 33.4142 9.41419C33.0391 9.78927 32.5304 9.99998 32 9.99998C31.4696 9.99998 30.9609 9.78927 30.5858 9.41419C30.2107 9.03912 30 8.53041 30 7.99998V5.33331C30 4.80288 30.2107 4.29417 30.5858 3.9191C30.9609 3.54403 31.4696 3.33331 32 3.33331ZM11.7307 11.7306C12.1057 11.3561 12.614 11.1457 13.144 11.1457C13.674 11.1457 14.1823 11.3561 14.5573 11.7306L15.6053 12.776C15.9698 13.153 16.1717 13.6581 16.1674 14.1825C16.163 14.7069 15.9529 15.2086 15.5823 15.5796C15.2117 15.9506 14.7101 16.1612 14.1857 16.166C13.6613 16.1708 13.156 15.9695 12.7787 15.6053L11.7307 14.5573C11.3561 14.1823 11.1458 13.674 11.1458 13.144C11.1458 12.614 11.3561 12.1056 11.7307 11.7306ZM52.2693 11.7306C52.6439 12.1056 52.8542 12.614 52.8542 13.144C52.8542 13.674 52.6439 14.1823 52.2693 14.5573L51.2213 15.6053C50.8422 15.9586 50.3407 16.1509 49.8226 16.1418C49.3045 16.1326 48.8101 15.9227 48.4437 15.5563C48.0772 15.1899 47.8673 14.6955 47.8582 14.1774C47.8491 13.6592 48.0414 13.1578 48.3947 12.7786L49.4427 11.7306C49.8177 11.3561 50.326 11.1457 50.856 11.1457C51.386 11.1457 51.8943 11.3561 52.2693 11.7306ZM3.33334 32C3.33334 31.4695 3.54405 30.9608 3.91912 30.5858C4.2942 30.2107 4.8029 30 5.33334 30H8C8.53044 30 9.03914 30.2107 9.41422 30.5858C9.78929 30.9608 10 31.4695 10 32C10 32.5304 9.78929 33.0391 9.41422 33.4142C9.03914 33.7893 8.53044 34 8 34H5.33334C4.8029 34 4.2942 33.7893 3.91912 33.4142C3.54405 33.0391 3.33334 32.5304 3.33334 32ZM54 32C54 31.4695 54.2107 30.9608 54.5858 30.5858C54.9609 30.2107 55.4696 30 56 30H58.6667C59.1971 30 59.7058 30.2107 60.0809 30.5858C60.456 30.9608 60.6667 31.4695 60.6667 32C60.6667 32.5304 60.456 33.0391 60.0809 33.4142C59.7058 33.7893 59.1971 34 58.6667 34H56C55.4696 34 54.9609 33.7893 54.5858 33.4142C54.2107 33.0391 54 32.5304 54 32ZM48.3947 48.3946C48.7697 48.0201 49.278 47.8097 49.808 47.8097C50.338 47.8097 50.8463 48.0201 51.2213 48.3946L52.2693 49.4426C52.4658 49.6257 52.6234 49.8465 52.7328 50.0919C52.8421 50.3372 52.9008 50.602 52.9056 50.8706C52.9103 51.1391 52.8609 51.4059 52.7603 51.6549C52.6597 51.9039 52.51 52.1302 52.3201 52.3201C52.1302 52.51 51.904 52.6597 51.6549 52.7603C51.4059 52.8609 51.1392 52.9103 50.8706 52.9056C50.6021 52.9008 50.3372 52.842 50.0919 52.7327C49.8466 52.6234 49.6258 52.4658 49.4427 52.2693L48.3947 51.2213C48.0201 50.8463 47.8098 50.338 47.8098 49.808C47.8098 49.278 48.0201 48.7697 48.3947 48.3946ZM15.6053 48.3946C15.9799 48.7697 16.1902 49.278 16.1902 49.808C16.1902 50.338 15.9799 50.8463 15.6053 51.2213L14.5573 52.2693C14.3742 52.4658 14.1534 52.6234 13.9081 52.7327C13.6628 52.842 13.3979 52.9008 13.1294 52.9056C12.8609 52.9103 12.5941 52.8609 12.3451 52.7603C12.096 52.6597 11.8698 52.51 11.6799 52.3201C11.49 52.1302 11.3403 51.9039 11.2397 51.6549C11.1391 51.4059 11.0897 51.1391 11.0944 50.8706C11.0992 50.602 11.1579 50.3372 11.2673 50.0919C11.3766 49.8465 11.5342 49.6257 11.7307 49.4426L12.776 48.3946C12.9617 48.2088 13.1823 48.0614 13.425 47.9608C13.6677 47.8602 13.9279 47.8084 14.1907 47.8084C14.4534 47.8084 14.7136 47.8602 14.9563 47.9608C15.1991 48.0614 15.4196 48.2088 15.6053 48.3946ZM32 54C32.5304 54 33.0391 54.2107 33.4142 54.5858C33.7893 54.9608 34 55.4695 34 56V58.6666C34 59.1971 33.7893 59.7058 33.4142 60.0809C33.0391 60.4559 32.5304 60.6666 32 60.6666C31.4696 60.6666 30.9609 60.4559 30.5858 60.0809C30.2107 59.7058 30 59.1971 30 58.6666V56C30 55.4695 30.2107 54.9608 30.5858 54.5858C30.9609 54.2107 31.4696 54 32 54Z" fill="#F24E1E"/>
</g>
</svg>
