<svg width="64" height="64" viewBox="0 0 64 64" fill="none" xmlns="http://www.w3.org/2000/svg">
<g id="Group">
<path id="Vector" d="M34.6667 7.99998C34.6667 7.29274 34.3857 6.61446 33.8856 6.11436C33.3855 5.61426 32.7072 5.33331 32 5.33331C31.2928 5.33331 30.6145 5.61426 30.1144 6.11436C29.6143 6.61446 29.3333 7.29274 29.3333 7.99998V8.14931C23.5946 8.79066 18.2795 11.4796 14.363 15.7228C10.4465 19.966 8.19116 25.479 8.01067 31.2506C7.99744 31.695 8.07366 32.1374 8.23477 32.5517C8.39589 32.966 8.63862 33.3437 8.94856 33.6623C9.2585 33.981 9.62932 34.2341 10.039 34.4066C10.4487 34.5791 10.8888 34.6676 11.3333 34.6666H29.3333V50.6666C29.3333 51.7172 29.5403 52.7575 29.9423 53.7281C30.3443 54.6987 30.9336 55.5806 31.6765 56.3235C32.4193 57.0664 33.3013 57.6556 34.2719 58.0577C35.2425 58.4597 36.2828 58.6666 37.3333 58.6666C38.3839 58.6666 39.4242 58.4597 40.3948 58.0577C41.3654 57.6556 42.2473 57.0664 42.9902 56.3235C43.7331 55.5806 44.3223 54.6987 44.7244 53.7281C45.1264 52.7575 45.3333 51.7172 45.3333 50.6666V48C45.3333 47.2927 45.0524 46.6145 44.5523 46.1144C44.0522 45.6143 43.3739 45.3333 42.6667 45.3333C41.9594 45.3333 41.2811 45.6143 40.781 46.1144C40.281 46.6145 40 47.2927 40 48V50.6666C40 51.3739 39.719 52.0522 39.219 52.5523C38.7189 53.0524 38.0406 53.3333 37.3333 53.3333C36.6261 53.3333 35.9478 53.0524 35.4477 52.5523C34.9476 52.0522 34.6667 51.3739 34.6667 50.6666V34.6666H52.6667C54.4853 34.6666 56.048 33.176 55.9867 31.2506C55.8063 25.4794 53.5513 19.9667 49.6353 15.7236C45.7193 11.4804 40.4049 8.79126 34.6667 8.14931V7.99998Z" fill="#437FEF"/>
</g>
</svg>
