<svg width="64" height="64" viewBox="0 0 64 64" fill="none" xmlns="http://www.w3.org/2000/svg">
<g id="ph:moon-fill">
<path id="Vector" d="M58.885 37.5525C57.2699 42.8249 54.033 47.4537 49.635 50.78C45.7737 53.6862 41.1788 55.4586 36.3661 55.8984C31.5534 56.3382 26.7133 55.4279 22.3892 53.2698C18.0651 51.1116 14.4281 47.791 11.8863 43.6806C9.34463 39.5702 7.99883 34.8328 8 30C7.98262 24.3591 9.8164 18.8683 13.22 14.37C16.5463 9.97198 21.1751 6.73511 26.4475 5.12C26.795 5.013 27.1651 5.00275 27.518 5.09036C27.8709 5.17797 28.1932 5.36012 28.4503 5.61722C28.7074 5.87432 28.8895 6.19665 28.9771 6.54953C29.0647 6.90241 29.0545 7.2725 28.9475 7.62C27.7946 11.4336 27.6979 15.4885 28.6678 19.3527C29.6377 23.2168 31.6377 26.7455 34.4549 29.5626C37.272 32.3798 40.8007 34.3798 44.6648 35.3497C48.529 36.3196 52.5839 36.2229 56.3975 35.07C56.745 34.963 57.1151 34.9528 57.468 35.0404C57.8209 35.128 58.1432 35.3101 58.4003 35.5672C58.6574 35.8243 58.8395 36.1466 58.9271 36.4995C59.0147 36.8524 59.0045 37.2225 58.8975 37.57L58.885 37.5525Z" fill="#FFC700"/>
</g>
</svg>
